<?xml version="1.0" encoding="UTF-8"?>
<svg id="Layer_1" data-name="Layer 1" xmlns="http://www.w3.org/2000/svg" viewBox="0 0 48 48">
  <path d="M2.48,45.56h1.14c3.08,0,4.76-1.81,4.76-4.96V8.57c0-3.15-1.67-4.96-4.76-4.96h-1.14v-1.21h18.43c9.11,0,15.34,4.29,15.34,11.99,0,9.25-7.64,13.53-14.94,13.53-3.15,0-5.43-.67-6.9-1.34v14c0,3.15,1.54,4.96,4.62,4.96h1.68v1.21H2.48v-1.21ZM29.35,15.14c0-6.16-3.75-10.18-10.25-10.18-1.54,0-3.42.2-4.69.47v18.96c1.34.74,2.88,1.14,5.16,1.14,5.63,0,9.78-3.62,9.78-10.39Z"/>
</svg>